<?xml version="1.0" encoding="UTF-8"?>
<svg width="77px" height="77px" viewBox="0 0 77 77" version="1.1" xmlns="http://www.w3.org/2000/svg" xmlns:xlink="http://www.w3.org/1999/xlink">
    <title>404</title>
    <g id="Page-404" stroke="none" stroke-width="1" fill="none" fill-rule="evenodd">
        <g id="iPhone-13-Pro-Max" transform="translate(-168.000000, -478.000000)">
            <g id="Group" transform="translate(168.000000, 478.000000)">
                <g id="loading" fill="#D8D8D8">
                    <circle id="Oval" cx="38.5" cy="38.5" r="38.5"></circle>
                </g>
                <g id="error-404-on-screen-svgrepo-com" transform="translate(14.000000, 18.000000)" fill-rule="nonzero">
                    <path d="M46.3856875,0 L2.61431252,0 C1.17080691,0 0,1.14664845 0,2.56036871 L0,29.641652 C0,31.0553722 1.17080691,32.2020207 2.61431252,32.2020207 L19.9414126,32.2020207 L17.607913,37.7007829 L16.5375578,37.7007829 C15.6077117,37.7007829 14.8532967,38.4396313 14.8532967,39.3502909 C14.8532967,40.2609504 15.6077117,41 16.5375578,41 L32.4625449,41 C33.392391,41 34.1470114,40.2609504 34.1470114,39.3502909 C34.1470114,38.4396313 33.392391,37.7007829 32.4625449,37.7007829 L31.3921897,37.7007829 L29.0586901,32.2020207 L46.3856875,32.2020207 C47.8291931,32.2020207 49,31.0553722 49,29.641652 L49,2.56036871 C49,1.14664845 47.8291931,0 46.3856875,0 Z M37.9303847,30.5452701 C37.2540304,30.5452701 36.7053462,30.0079075 36.7053462,29.3455091 C36.7053462,28.6831106 37.2539277,28.145748 37.9303847,28.145748 C38.6065337,28.145748 39.1554233,28.68301 39.1554233,29.3455091 C39.1553206,30.0079075 38.6065337,30.5452701 37.9303847,30.5452701 Z M41.9115802,30.5452701 C41.2352258,30.5452701 40.6865417,30.0079075 40.6865417,29.3455091 C40.6865417,28.6831106 41.2351231,28.145748 41.9115802,28.145748 C42.5877291,28.145748 43.1366187,28.68301 43.1366187,29.3455091 C43.1366187,30.0079075 42.5878318,30.5452701 41.9115802,30.5452701 Z M44.3345414,25.7167525 C44.3345414,26.3352928 43.8225252,26.8368446 43.1908503,26.8368446 L5.80904699,26.8368446 C5.17747477,26.8368446 4.66535587,26.3353934 4.66535587,25.7167525 L4.66535587,6.22835615 C4.66535587,5.60961463 5.17737206,5.108264 5.80904699,5.108264 L43.1907476,5.108264 C43.8223198,5.108264 44.3345414,5.60961463 44.3345414,6.22835615 L44.3345414,25.7167525 L44.3345414,25.7167525 Z" id="Shape" fill="#C56363"></path>
                    <path d="M18.106659,15.8617352 L17.7772322,15.8617352 L17.7772322,10.5148632 C17.7772322,10.2300864 17.5426463,10 17.2530902,10 L15.1503047,10 C14.9695048,10 14.8009425,10.0917635 14.7058054,10.2428636 L11.1746811,15.8174022 C11.0598061,15.9970574 11,16.2044933 11,16.4164787 L11,17.1003494 C11,17.3853198 11.2344872,17.6152126 11.524142,17.6152126 L15.5180232,17.6152126 L15.5180232,18.8921585 C15.5180232,19.5040122 16.0238089,20 16.647529,20 C17.2713478,20 17.7771335,19.5040122 17.7771335,18.8921585 L17.7771335,17.6152126 L18.1065603,17.6152126 C18.6001085,17.6152126 19,17.2228944 19,16.7381351 C19.0000986,16.2540534 18.6002072,15.8617352 18.106659,15.8617352 Z M15.5181219,13.6460521 L15.5181219,15.8617352 L13.2284177,15.8617352 L13.2284177,15.8309537 L14.5925094,13.6460521 C14.9373319,13.0154198 15.2038933,12.4306692 15.5335175,11.7850332 L15.5962843,11.7850332 C15.5487158,12.4306692 15.5181219,13.0462012 15.5181219,13.6460521 Z" id="Shape" fill="#000000"></path>
                    <path d="M24.0501791,10 C21.3064034,10 20,12.4389858 20,15.5163244 C20.017668,18.5280563 21.2251512,21 23.9673861,21 C26.6774695,21 28,18.7408406 28,15.4507177 C27.9998973,12.5374474 26.889588,10 24.0501791,10 Z M24.0326139,19.1174873 C23.0706334,19.1174873 22.4821458,17.9554132 22.4979648,15.5162215 C22.4821458,13.0443808 23.1026823,11.8824097 24.0165894,11.8824097 C25.0120569,11.8824097 25.5191895,13.1268785 25.5191895,15.4834696 C25.5192923,17.9066974 24.9960324,19.1174873 24.0326139,19.1174873 Z" id="Shape" fill="#000000"></path>
                    <path d="M36.1063851,15.8617352 L35.7769663,15.8617352 L35.7769663,10.5148632 C35.7769663,10.2300864 35.5423863,10 35.2528373,10 L33.1501036,10 C32.9693082,10 32.80075,10.0917635 32.705714,10.2428636 L29.1746768,15.8174022 C29.0598046,15.9970574 29,16.2044933 29,16.4164787 L29,17.1003494 C29,17.3853198 29.2344814,17.6152126 29.5241291,17.6152126 L33.5179118,17.6152126 L33.5179118,18.8921585 C33.5179118,19.5040122 34.023685,20 34.6473897,20 C35.2711931,20 35.7769663,19.5040122 35.7769663,18.8921585 L35.7769663,17.6152126 L36.1063851,17.6152126 C36.5999211,17.6152126 37,17.2228944 37,16.7381351 C36.9999013,16.2540534 36.5999211,15.8617352 36.1063851,15.8617352 Z M33.5179118,13.6460521 L33.5179118,15.8617352 L31.2282641,15.8617352 L31.2282641,15.8309537 L32.5923221,13.6460521 C32.9371361,13.0154198 33.2036909,12.4306692 33.533307,11.7850332 L33.5960722,11.7850332 C33.5485049,12.4306692 33.5179118,13.0462012 33.5179118,13.6460521 Z" id="Shape" fill="#000000"></path>
                </g>
            </g>
        </g>
    </g>
</svg>