<?xml version="1.0" encoding="UTF-8"?>
<svg width="192px" height="73px" viewBox="0 0 192 73" version="1.1" xmlns="http://www.w3.org/2000/svg" xmlns:xlink="http://www.w3.org/1999/xlink">
    <title>yld0</title>
    <defs>
        <path d="M19.0898438,0 C25.3007812,0 30.0351562,2.60742188 33.2929688,7.82226562 C36.5507812,13.0371094 38.1796875,20.0625 38.1796875,28.8984375 C38.1796875,37.7578125 36.5507812,44.7949219 33.2929688,50.0097656 C30.0351562,55.2246094 25.3007812,57.8320312 19.0898438,57.8320312 C12.9023438,57.8320312 8.17382812,55.2246094 4.90429688,50.0097656 C1.63476562,44.7949219 0,37.7578125 0,28.8984375 C0,20.0625 1.63476562,13.0371094 4.90429688,7.82226562 C8.17382812,2.60742188 12.9023438,0 19.0898438,0 Z M8.4375,40.5703125 L27.3164062,11.0039062 C26.1210938,8.82421875 24.8261719,7.35351562 23.4316406,6.59179688 C22.0371094,5.83007812 20.5898438,5.44921875 19.0898438,5.44921875 C15.1757812,5.44921875 12.1992188,7.62304688 10.1601562,11.9707031 C8.12109375,16.3183594 7.1015625,21.8320312 7.1015625,28.5117188 C7.1015625,30.0351562 7.1484375,31.6757812 7.2421875,33.4335938 C7.3359375,35.1914062 7.734375,37.5703125 8.4375,40.5703125 Z M29.671875,17.5078125 L10.9335938,47.25 C11.9414062,48.9609375 13.1015625,50.2441406 14.4140625,51.0996094 C15.7265625,51.9550781 17.1914062,52.3828125 18.8085938,52.3828125 C23.2617188,52.3828125 26.4257812,49.8925781 28.3007812,44.9121094 C30.1757812,39.9316406 31.1132812,34.40625 31.1132812,28.3359375 C31.1132812,24.5859375 30.6328125,20.9765625 29.671875,17.5078125 Z" id="path-1"></path>
    </defs>
    <g id="Page-1" stroke="none" stroke-width="1" fill="none" fill-rule="evenodd">
        <g id="play/ic_launcher_APP" transform="translate(-81.000000, -275.000000)">
            <g id="Group" transform="translate(81.000000, 264.000000)">
                <g id="yld0-2" transform="translate(48.000000, 0.000000)" fill="#000000" fill-rule="nonzero" font-family="LucidaGrande, Lucida Grande" font-size="72" font-weight="normal">
                    <g id="yld0">
                        <text id="yld">
                            <tspan x="0" y="70">yld</tspan>
                        </text>
                    </g>
                </g>
                <g id="yld0-2" transform="translate(153.496094, 11.820312)" fill="#000000" fill-rule="nonzero">
                    <g id="Shape">
                        <use xlink:href="#path-1"></use>
                        <use xlink:href="#path-1"></use>
                    </g>
                </g>
                <g id="arrow-point-to-down" transform="translate(0.000000, 44.000000)" fill="#000000" fill-rule="nonzero">
                    <polygon id="Path" points="0 0 44 0 21.9996735 22"></polygon>
                </g>
                <polygon id="Path-2" fill="#000000" points="162.270493 58.0777094 184.609375 24.5937184 188.668924 38.9742401 186.432637 52.390625 184.609375 60.0010302 175.469709 67.2868881 167.174392 64.203125"></polygon>
                <path d="" id="Path-3" stroke="#979797"></path>
                <polygon id="Path-4" points="160.597656 41.2363281 168.51494 31.8147942 172.585938 36.5255612 162.270493 52.390625"></polygon>
                <path d="" id="Path-5" stroke="#979797"></path>
            </g>
        </g>
    </g>
</svg>